<svg width="24" height="24" viewBox="0 0 24 24" class="social-icon" xmlns="http://www.w3.org/2000/svg">
<g clip-path="url(#clip0_102_4)">
<path d="M22.5 1.86106e-06C21.5 3.72211e-06 2.4998 6.19233e-06 1.4998 1.86106e-06C0.499797 -2.47022e-06 -4.37202e-06 0.500002 -0.000202551 1.5C-0.000363624 2.31277 -4.92814e-06 21.5 -4.37204e-06 22.5C-3.81593e-06 23.5 0.499996 24 1.5 23.984C2.49999 23.968 8.20492 24 8.20492 24C8.80492 24.113 9.02492 23.742 9.02492 23.423C9.02492 23.138 9.01492 22.383 9.00992 21.383C5.67192 22.107 4.96792 19.773 4.96792 19.773C4.42192 18.388 3.63292 18.018 3.63292 18.018C2.54592 17.274 3.71692 17.289 3.71692 17.289C4.92192 17.373 5.55492 18.525 5.55492 18.525C6.62492 20.36 8.36392 19.83 9.04992 19.523C9.15792 18.747 9.46692 18.218 9.80992 17.918C7.14492 17.618 4.34392 16.586 4.34392 11.988C4.34392 10.678 4.80892 9.60802 5.57892 8.76802C5.44392 8.46502 5.03892 7.24502 5.68392 5.59202C5.68392 5.59202 6.68892 5.27002 8.98392 6.82202C9.94392 6.55502 10.9639 6.42302 11.9839 6.41702C13.0039 6.42302 14.0239 6.55502 14.9839 6.82202C17.2639 5.27002 18.2689 5.59202 18.2689 5.59202C18.9139 7.24502 18.5089 8.46502 18.3889 8.76802C19.1539 9.60802 19.6189 10.678 19.6189 11.988C19.6189 16.598 16.8139 17.613 14.1439 17.908C14.5639 18.268 14.9539 19.004 14.9539 20.128C14.9539 21.734 14.9389 23.024 14.9389 23.414C14.9389 23.729 15.1489 24.104 15.7639 23.984C15.7639 23.984 21.5 24 22.5 24C23.5 24 24 23.414 23.9999 22.5C23.9999 21.7575 24 2.5 24 1.5C24 0.500002 23.5 0 22.5 1.86106e-06Z"/>
</g>
<defs>
<clipPath id="clip0_102_4">
<rect width="24" height="24" fill="white"/>
</clipPath>
</defs>
</svg>
