<svg width="24" height="24" viewBox="0 0 24 24" class="social-icon"
  xmlns="http://www.w3.org/2000/svg">
  <path d="M19.0392 19.0433H16.0775V14.4025C16.0775 13.2958 16.055 11.8717 14.5342 11.8717C12.99 11.8717 12.7542 13.0758 12.7542 14.3208V19.0433H9.7925V9.5H12.6375V10.8008H12.6758C13.0733 10.0508 14.04 9.25917 15.4842 9.25917C18.485 9.25917 19.04 11.2342 19.04 13.805L19.0392 19.0433ZM6.4475 8.19417C5.49417 8.19417 4.72833 7.4225 4.72833 6.47333C4.72833 5.525 5.495 4.75417 6.4475 4.75417C7.3975 4.75417 8.1675 5.525 8.1675 6.47333C8.1675 7.4225 7.39667 8.19417 6.4475 8.19417ZM7.9325 19.0433H4.9625V9.5H7.9325V19.0433ZM21 0H1.5C0.684167 0 0 0.704167 0 1.5V22.5C0 23.2967 0.684167 24 1.5 24H22.5C23.315 24 24 23.2967 24 22.5V1.5C24 0.704167 23.315 0 22.5 0H21Z" />
</svg>
