<svg width="24" height="24" viewBox="0 0 24 24" class="social-icon" xmlns="http://www.w3.org/2000/svg">
<g clip-path="url(#clip0_102_2)">
<path d="M1.5 0C0.5 -3.4372e-06 -4.75698e-10 0.5 0 1.5C4.75698e-10 2.5 1.24198e-09 21.5 0 22.5C-1.24198e-09 23.5 0.5 24 1.5 24C2.5 24 22.5 24 22.5 24C23.5 24 24 23.5 24 22.5C24 13.4872 24 2.43014 24 1.5C24 0.5 23.5 0 22.5 0C21.5 0 2.5 3.4372e-06 1.5 0ZM19.938 6.686L18.651 7.92C18.5964 7.96155 18.5542 8.01725 18.529 8.08106C18.5038 8.14487 18.4965 8.21436 18.508 8.282V17.349C18.4967 17.4165 18.5041 17.4858 18.5293 17.5494C18.5545 17.613 18.5966 17.6685 18.651 17.71L19.908 18.944V19.215H13.586V18.945L14.888 17.68C15.016 17.552 15.016 17.515 15.016 17.32V9.99L11.396 19.185H10.906L6.69 9.99V16.153C6.67265 16.2808 6.68462 16.4109 6.72499 16.5334C6.76536 16.6559 6.83307 16.7676 6.923 16.86L8.617 18.914V19.185H3.815V18.915L5.51 16.86C5.5992 16.7675 5.6654 16.6553 5.70327 16.5325C5.74113 16.4097 5.74961 16.2797 5.728 16.153V9.027C5.73798 8.92938 5.7248 8.83079 5.68953 8.73922C5.65426 8.64765 5.59789 8.56569 5.525 8.5L4.019 6.686V6.416H8.693L12.306 14.339L15.482 6.415H19.938V6.686Z"/>
</g>
<defs>
<clipPath id="clip0_102_2">
<rect width="24" height="24" fill="white"/>
</clipPath>
</defs>
</svg>
